<?xml version="1.0" standalone="no"?>
<!DOCTYPE svg PUBLIC "-//W3C//DTD SVG 20010904//EN"
 "http://www.w3.org/TR/2001/REC-SVG-20010904/DTD/svg10.dtd">
<svg version="1.0" xmlns="http://www.w3.org/2000/svg"
 width="512.000000pt" height="512.000000pt" viewBox="0 0 512.000000 512.000000"
 preserveAspectRatio="xMidYMid meet">
<metadata>
Created by potrace 1.14, written by Peter Selinger 2001-2017
</metadata>
<g transform="translate(0.000000,512.000000) scale(0.100000,-0.100000)"
fill="#000000" stroke="none">
<path d="M393 5106 c-186 -45 -348 -215 -382 -400 -16 -85 -15 -4224 0 -4298
40 -192 212 -361 404 -398 44 -8 634 -10 2180 -8 l2120 3 58 22 c152 57 263
168 320 320 l22 58 3 2120 c2 1546 0 2136 -8 2180 -37 192 -206 364 -398 404
-81 17 -4248 14 -4319 -3z m1188 -1422 c355 -61 666 -291 828 -612 46 -91 98
-254 112 -351 18 -125 7 -323 -25 -444 -28 -110 -102 -272 -166 -367 -56 -82
-167 -198 -249 -261 -91 -69 -286 -163 -406 -196 -93 -26 -114 -28 -285 -28
-172 0 -192 2 -285 28 -336 93 -594 307 -742 613 -73 152 -103 273 -110 444
-13 328 103 626 332 855 260 261 635 381 996 319z m1646 -836 c221 -420 405
-771 409 -781 6 -17 3 -18 -42 -12 -27 4 -54 14 -61 22 -6 8 -168 312 -360
675 l-348 661 -6 -479 c-3 -264 -7 -692 -8 -951 l-1 -473 -45 0 -45 0 0 1050
0 1050 53 0 52 0 402 -762z m216 -15 c224 -426 406 -777 404 -780 -3 -2 -27
-1 -55 3 l-50 6 -353 672 c-194 369 -377 717 -407 774 l-54 102 54 0 53 -1
408 -776z m175 57 c208 -394 381 -717 386 -719 5 -1 179 320 387 716 l377 718
56 3 56 3 0 -1051 0 -1050 -50 0 -50 0 -2 954 -3 954 -357 -676 -357 -677 -57
0 -57 0 -399 760 c-220 418 -403 766 -405 773 -4 10 7 12 47 10 l52 -3 376
-715z m821 678 c-32 -62 -551 -1042 -554 -1046 -1 -2 -15 18 -30 43 l-27 46
264 499 263 499 53 1 52 0 -21 -42z m192 -30 c-21 -40 -173 -327 -336 -638
-163 -311 -300 -568 -304 -573 -4 -4 -18 15 -30 41 l-23 49 313 597 314 596
53 0 53 0 -40 -72z m59 -1218 l0 -810 -45 0 -45 0 0 731 0 732 43 78 c23 44
43 79 45 79 1 0 2 -364 2 -810z m-1732 715 l42 -85 0 -720 0 -720 -50 0 -50 0
0 805 c0 443 3 805 8 805 4 0 27 -38 50 -85z m1552 -885 l0 -640 -45 0 -45 0
0 561 0 561 43 79 c23 43 43 79 45 79 1 0 2 -288 2 -640z m-1355 511 l25 -50
0 -551 0 -550 -45 0 -45 0 0 633 0 632 20 -32 c11 -18 31 -55 45 -82z m1175
-686 l0 -465 -50 0 -51 0 7 388 7 387 39 78 c21 42 40 77 43 77 3 0 5 -209 5
-465z m-970 -85 l0 -380 -45 0 -45 0 0 463 0 462 45 -82 45 -83 0 -380z"/>
<path d="M1235 3599 c-192 -27 -408 -132 -558 -270 -225 -205 -348 -506 -334
-814 26 -566 482 -1005 1047 -1005 480 0 886 314 1017 786 25 89 28 115 27
259 0 184 -16 271 -82 422 -186 433 -646 689 -1117 622z m396 -113 c266 -67
494 -253 618 -502 185 -373 108 -822 -191 -1110 -128 -123 -263 -201 -429
-246 -111 -30 -357 -33 -459 -5 -203 56 -342 137 -478 282 -268 285 -337 708
-172 1053 104 218 244 360 455 462 209 102 430 124 656 66z"/>
<path d="M1278 3420 c-213 -34 -381 -121 -520 -269 -436 -465 -238 -1221 372
-1419 330 -107 695 0 927 272 66 77 147 236 174 341 117 467 -169 944 -634
1055 -98 24 -240 32 -319 20z m272 -102 c144 -26 294 -112 406 -231 82 -87
128 -161 165 -267 91 -256 44 -534 -126 -748 -98 -123 -246 -220 -400 -263
-64 -18 -105 -23 -205 -23 -145 0 -214 16 -337 75 -469 225 -586 845 -231
1224 190 204 446 286 728 233z"/>
<path d="M1212 3220 c-117 -31 -206 -83 -303 -180 -70 -69 -94 -101 -127 -170
-56 -115 -72 -184 -73 -310 0 -120 16 -192 65 -295 87 -183 252 -320 448 -372
84 -22 252 -22 337 0 196 52 353 181 446 365 46 93 67 186 67 302 0 117 -19
198 -73 310 -54 110 -177 236 -286 293 -147 77 -341 99 -501 57z m316 -85
c206 -49 382 -222 437 -430 24 -93 20 -229 -10 -323 -99 -313 -430 -486 -741
-388 -178 56 -324 196 -384 369 -31 87 -38 249 -15 336 55 212 228 386 433
435 76 19 202 19 280 1z"/>
<path d="M1263 3045 c-169 -46 -314 -191 -359 -359 -18 -68 -18 -188 1 -261
42 -159 176 -297 338 -347 91 -27 244 -22 329 11 122 47 243 168 288 289 15
37 24 89 27 148 9 157 -29 263 -133 374 -102 107 -225 161 -369 159 -38 0 -94
-7 -122 -14z"/>
</g>
</svg>
